External Loads File
version=1
nRows=38
nColumns=13
Range=5.000000e-03-10 seconds
endheader
time 	forceRightX 	forceRightY 	forceRightZ 	pointRightX 	pointRightY 	pointRightZ 	forceLeftX 	forceLeftY 	forceLeftZ 	pointLeftX 	pointLeftY 	pointLeftZ 		
5.005000 12.594078 1213.014581 -0.000000 0.374054 0.230589 -0.099107 103.803336 -91.449842 -0.000000 0.127826 0.387159 -0.336500
5.010000 33.660079 1242.227428 -0.000000 0.368665 0.221539 -0.099078 98.131230 -95.386373 -0.000000 0.133969 0.396316 -0.336720
5.015000 56.516713 1268.639169 -0.000000 0.363004 0.212740 -0.099070 90.720383 -98.271768 -0.000000 0.140695 0.405083 -0.336910
5.020000 80.862697 1291.364039 -0.000000 0.356863 0.204244 -0.098970 81.440594 -99.112271 -0.000000 0.147980 0.413298 -0.337097
5.025000 106.450075 1309.194920 -0.000000 0.350347 0.196293 -0.098804 70.435886 -96.713456 -0.000000 0.155624 0.421457 -0.337285
5.030000 131.692742 1320.659848 -0.000000 0.343511 0.188940 -0.098628 58.276950 -89.697823 -0.000000 0.163778 0.428996 -0.337544
5.035000 157.194475 1323.776887 -0.000000 0.336276 0.182164 -0.098454 45.691948 -76.855591 -0.000000 0.172306 0.436086 -0.337675
5.040000 182.034036 1316.416984 -0.000000 0.328892 0.175870 -0.098204 33.812151 -57.226766 -0.000000 0.181037 0.442775 -0.337767
5.045000 206.303529 1296.177072 -0.000000 0.321266 0.170301 -0.098082 23.856623 -30.559687 -0.000000 0.190071 0.448864 -0.337863
5.050000 228.504230 1261.113087 -0.000000 0.313662 0.165306 -0.097821 16.933296 2.529958 -0.000000 0.199184 0.454285 -0.337888
5.055000 251.477021 1209.192680 -0.000000 0.305967 0.160754 -0.097524 13.771813 40.425991 -0.000000 0.209113 0.459073 -0.338987
5.060000 268.051025 1141.513605 -0.000000 0.298348 0.156829 -0.097266 14.337138 80.825852 -0.000000 0.218420 0.463157 -0.338223
5.065000 281.574894 1058.567067 -0.000000 0.290617 0.153138 -0.096741 18.177082 120.828830 -0.000000 0.228089 0.466492 -0.338422
5.070000 288.724308 963.855528 -0.000000 0.282932 0.150149 -0.096180 23.909411 157.628472 -0.000000 0.237669 0.469550 -0.338785
5.075000 289.612265 861.318956 -0.000000 0.274963 0.147851 -0.095641 30.022318 188.876017 -0.000000 0.247096 0.472601 -0.339189
5.080000 284.739912 755.232412 -0.000000 0.266608 0.146282 -0.095333 35.148084 213.168249 -0.000000 0.256641 0.475606 -0.339469
5.085000 273.665866 649.833794 -0.000000 0.257888 0.145578 -0.095112 37.987482 230.323247 -0.000000 0.266079 0.478110 -0.339778
5.090000 257.141282 547.897098 -0.000000 0.248890 0.145778 -0.095203 37.955997 241.021561 -0.000000 0.275382 0.479727 -0.340112
5.095000 235.706290 450.995610 -0.000000 0.239989 0.146727 -0.095415 34.713983 246.363741 -0.000000 0.284454 0.480675 -0.340465
5.100000 210.679920 359.162112 -0.000000 0.231309 0.148276 -0.095575 28.408152 247.501423 -0.000000 0.293236 0.481027 -0.340788
5.105000 183.546009 271.398428 -0.000000 0.222864 0.150256 -0.095828 19.441189 245.618560 -0.000000 0.301695 0.480805 -0.341097
5.110000 155.864860 185.982829 -0.000000 0.214530 0.152816 -0.096110 8.608719 241.959109 -0.000000 0.309942 0.479688 -0.341409
5.115000 128.415919 101.270079 -0.000000 0.206123 0.156106 -0.096400 -3.444540 237.885538 -0.000000 0.317864 0.477835 -0.341662
5.120000 101.396186 16.092172 -0.000000 0.197885 0.159964 -0.096521 -16.452495 234.807105 -0.000000 0.325402 0.475362 -0.342035
5.125000 74.845344 -70.111733 -0.000000 0.189410 0.164735 -0.096827 -29.725485 234.126315 -0.000000 0.332502 0.472246 -0.342368
5.130000 48.319828 -156.314070 -0.000000 0.180901 0.170308 -0.096975 -42.982356 237.098669 -0.000000 0.339468 0.468322 -0.342983
5.135000 21.179346 -239.949186 -0.000000 0.171626 0.176564 -0.098176 -56.081791 244.670525 -0.000000 0.345849 0.463761 -0.343096
5.140000 -6.069494 -317.131117 -0.000000 0.163265 0.183578 -0.098659 -69.846854 257.198944 -0.000000 0.351814 0.458332 -0.343117
5.145000 -33.014937 -383.309377 -0.000000 0.155631 0.190764 -0.098783 -84.220927 274.904377 -0.000000 0.357616 0.452059 -0.343469
5.150000 -58.788172 -433.766511 -0.000000 0.148452 0.198080 -0.098878 -98.999563 297.829058 -0.000000 0.363076 0.444980 -0.343757
5.155000 -81.444421 -464.809113 -0.000000 0.141984 0.205690 -0.098539 -114.060323 325.711353 -0.000000 0.368060 0.437373 -0.344182
5.160000 -99.289714 -474.604515 -0.000000 0.136015 0.213492 -0.098008 -128.651466 358.228568 -0.000000 0.372648 0.429282 -0.344521
5.165000 -110.220675 -463.743922 -0.000000 0.130775 0.221397 -0.098039 -142.367559 394.818483 -0.000000 0.376852 0.420692 -0.344833
5.170000 -112.975166 -434.825869 -0.000000 0.125828 0.229435 -0.098094 -154.707846 435.033356 -0.000000 0.380311 0.411619 -0.345160
5.175000 -107.331096 -391.699979 -0.000000 0.121266 0.237998 -0.098263 -164.849105 478.682380 -0.000000 0.383365 0.402218 -0.345487
5.180000 -93.652034 -338.813200 -0.000000 0.117027 0.246958 -0.098356 -171.667136 525.643843 -0.000000 0.386131 0.392054 -0.345808
5.185000 -72.217506 -280.863470 -0.000000 0.113362 0.256310 -0.098471 -174.560711 575.315294 -0.000000 0.388571 0.381155 -0.345673
5.190000 -43.258879 -222.406500 -0.000000 0.110189 0.266013 -0.098791 -174.838740 626.129221 -0.000000 0.390840 0.370777 -0.345052
